<svg xmlns:xlink="http://www.w3.org/1999/xlink" xmlns="http://www.w3.org/2000/svg" width="120" height="50" viewBox="0 0 120 50" fill="none" class="opacity-70"><rect x="10" y="45" width="100" height="2" fill="#1A1A1A"></rect><rect x="15" y="42" width="90" height="3" fill="#1A1A1A"></rect><g stroke="#1A1A1A" stroke-width="1.5px" fill="none"><line x1="25" y1="42" x2="25" y2="15" stroke="#1A1A1A" fill="none" stroke-width="1.5px"></line><line x1="28" y1="42" x2="28" y2="15" stroke-width="0.5px" stroke="#1A1A1A" fill="none"></line><line x1="48" y1="42" x2="48" y2="15" stroke="#1A1A1A" fill="none" stroke-width="1.5px"></line><line x1="51" y1="42" x2="51" y2="15" stroke-width="0.5px" stroke="#1A1A1A" fill="none"></line><line x1="72" y1="42" x2="72" y2="15" stroke="#1A1A1A" fill="none" stroke-width="1.5px"></line><line x1="75" y1="42" x2="75" y2="15" stroke-width="0.5px" stroke="#1A1A1A" fill="none"></line><line x1="95" y1="42" x2="95" y2="15" stroke="#1A1A1A" fill="none" stroke-width="1.5px"></line><line x1="92" y1="42" x2="92" y2="15" stroke-width="0.5px" stroke="#1A1A1A" fill="none"></line></g><rect x="23" y="15" width="6" height="2" fill="#1A1A1A"></rect><rect x="46" y="15" width="6" height="2" fill="#1A1A1A"></rect><rect x="70" y="15" width="6" height="2" fill="#1A1A1A"></rect><rect x="93" y="15" width="6" height="2" fill="#1A1A1A"></rect><rect x="20" y="12" width="80" height="3" fill="#1A1A1A"></rect><rect x="20" y="9" width="80" height="2" stroke="#1A1A1A" stroke-width="0.5px" fill="none"></rect><path d="M15 9 L60 0 L105 9 L15 9 Z" fill="none" stroke="#1A1A1A" stroke-width="1.5px"></path><circle cx="60" cy="5" r="2" fill="#1A1A1A"></circle><path d="M20 9 L60 2 L100 9" stroke="#1A1A1A" stroke-width="0.5px" fill="none"></path></svg>