<svg xmlns:xlink="http://www.w3.org/1999/xlink" xmlns="http://www.w3.org/2000/svg" width="120" height="60" viewBox="0 0 120 60" fill="none" class="opacity-60"><path d="M60 55 C45 55, 20 45, 15 15 M60 55 C58 52, 55 50, 50 48 M45 42 C40 40, 35 38, 30 25 M25 35 C22 30, 20 25, 15 15" stroke="#1A1A1A" stroke-width="1.5px" stroke-linecap="round" fill="none"></path><path d="M20 45 Q15 40 18 35 Q25 38 20 45 Z" fill="#1A1A1A" class="opacity-80"></path><path d="M30 50 Q25 45 28 40 Q35 43 30 50 Z" fill="#1A1A1A" class="opacity-80"></path><path d="M40 52 Q35 47 38 42 Q45 45 40 52 Z" fill="#1A1A1A" class="opacity-80"></path><path d="M15 30 Q10 25 15 20 Q20 25 15 30 Z" fill="#1A1A1A" class="opacity-80"></path><path d="M60 55 C75 55, 100 45, 105 15 M60 55 C62 52, 65 50, 70 48 M75 42 C80 40, 85 38, 90 25 M95 35 C98 30, 100 25, 105 15" stroke="#1A1A1A" stroke-width="1.5px" stroke-linecap="round" fill="none"></path><path d="M100 45 Q105 40 102 35 Q95 38 100 45 Z" fill="#1A1A1A" class="opacity-80"></path><path d="M90 50 Q95 45 92 40 Q85 43 90 50 Z" fill="#1A1A1A" class="opacity-80"></path><path d="M80 52 Q85 47 82 42 Q75 45 80 52 Z" fill="#1A1A1A" class="opacity-80"></path><path d="M105 30 Q110 25 105 20 Q100 25 105 30 Z" fill="#1A1A1A" class="opacity-80"></path><path d="M58 55 Q60 58 62 55" stroke="#1A1A1A" stroke-width="2px" stroke-linecap="round" fill="none"></path></svg>