<svg xmlns:xlink="http://www.w3.org/1999/xlink" xmlns="http://www.w3.org/2000/svg" width="100" height="50" viewBox="0 0 100 50" fill="none" class="opacity-60" data-v-282eab64=""><rect x="10" y="5" width="80" height="4" stroke="#E5E7EB" stroke-width="0.5px" fill="none" data-v-282eab64=""></rect><rect x="12" y="9" width="76" height="3" stroke="#E5E7EB" stroke-width="0.5px" fill="none" data-v-282eab64=""></rect><path d="M25 25 C20 25, 10 30, 15 38 C18 42, 25 40, 25 35 C25 32, 20 32, 20 35" stroke="#E5E7EB" stroke-width="1" fill="none" data-v-282eab64=""></path><circle cx="22" cy="35" r="1.5" fill="#E5E7EB" data-v-282eab64=""></circle><path d="M75 25 C80 25, 90 30, 85 38 C82 42, 75 40, 75 35 C75 32, 80 32, 80 35" stroke="#E5E7EB" stroke-width="1" fill="none" data-v-282eab64=""></path><circle cx="78" cy="35" r="1.5" fill="#E5E7EB" data-v-282eab64=""></circle><path d="M28 20 Q50 15 72 20" stroke="#E5E7EB" stroke-width="1" fill="none" data-v-282eab64=""></path><path d="M30 25 Q50 20 70 25" stroke="#E5E7EB" stroke-width="1" fill="none" data-v-282eab64=""></path><path d="M35 25 Q38 32 41 25" stroke="#E5E7EB" stroke-width="0.5px" fill="none" data-v-282eab64=""></path><path d="M47 25 Q50 35 53 25" stroke="#E5E7EB" stroke-width="0.5px" fill="none" data-v-282eab64=""></path><path d="M59 25 Q62 32 65 25" stroke="#E5E7EB" stroke-width="0.5px" fill="none" data-v-282eab64=""></path><line x1="28" y1="20" x2="25" y2="25" stroke="#E5E7EB" stroke-width="0.5px" data-v-282eab64="" fill="none"></line><line x1="72" y1="20" x2="75" y2="25" stroke="#E5E7EB" stroke-width="0.5px" data-v-282eab64="" fill="none"></line></svg>